<svg width="60" height="55" viewBox="0 0 60 55" fill="none" xmlns="http://www.w3.org/2000/svg">
<path d="M29.9999 53.2914C37.2618 48.3388 43.2635 43.3482 47.8448 38.4519C52.0394 33.969 55.0639 29.5489 56.8342 25.3143C58.2251 21.9861 58.8331 18.7942 58.6413 15.8272C58.4692 13.1657 57.6614 10.7341 56.2403 8.60004C53.324 4.22058 48.0232 1.5 42.4063 1.5C40.1602 1.5 38.0289 1.93483 36.0717 2.79241C33.9962 3.70181 32.2131 5.05066 30.772 6.8015L29.9999 7.73953L29.2278 6.8015C27.7864 5.05028 26.0033 3.70133 23.9282 2.79211C21.9714 1.93473 19.8401 1.5 17.5935 1.5C11.9772 1.5 6.67651 4.22075 3.76006 8.6005C2.33892 10.7347 1.53104 13.1663 1.35884 15.8278C1.16689 18.7947 1.77476 21.9864 3.16553 25.3142C4.9359 29.5488 7.96038 33.969 12.155 38.4519C16.7363 43.3482 22.738 48.3388 29.9999 53.2914ZM29.9999 54.5C14.0435 43.718 5.67495 33.9092 2.24291 25.6999C-6.95134 3.69999 19.3102 -6.82105 29.9999 6.16599C40.6895 -6.82104 66.9511 3.69998 57.7568 25.6999C54.3248 33.9092 45.9563 43.718 29.9999 54.5Z" fill="#707070"/>
</svg>